VIDEO INFO 'UP'

Format                           : Matroska
File size                        : 1.10 GiB
Duration                         : 1h 36mn
Overall bit rate                 : 1 629 Kbps
Encoded date                     : UTC 2011-07-27 18:32:25
Writing application              : mkvmerge v4.9.1 ('Ich will') gemaakt op Jul 11 2011 23:53:15
Writing library                  : libebml v1.2.1 + libmatroska v1.1.1

Video
ID                               : 1
Format                           : AVC
Format/Info                      : Advanced Video Codec
Format profile                   : Main@L3.1
Format settings, CABAC           : Yes
Format settings, ReFrames        : 4 frames
Format settings, GOP             : M=3, N=16
Codec ID                         : V_MPEG4/ISO/AVC
Duration                         : 1h 36mn
Nominal bit rate                 : 1 443 Kbps
Width                            : 1 280 pixels
Height                           : 720 pixels
Display aspect ratio             : 16:9
Frame rate mode                  : Variable
Frame rate                       : 23.976 fps
Color space                      : YUV
Chroma subsampling               : 4:2:0
Bit depth                        : 8 bits
Scan type                        : Progressive
Bits/(Pixel*Frame)               : 0.065
Writing library                  : x264 core 110 r1804 e89c4cf
Encoding settings                : cabac=1 / ref=2 / deblock=1:0:0 / analyse=0x1:0x111 / me=hex / subme=6 / psy=1 / psy_rd=1.00:0.00 / mixed_ref=0 / me_range=16 / chroma_me=1 / trellis=0 / 8x8dct=0 / cqm=0 / deadzone=21,11 / fast_pskip=1 / chroma_qp_offset=-2 / threads=3 / sliced_threads=0 / nr=0 / decimate=1 / interlaced=0 / constrained_intra=0 / bframes=2 / b_pyramid=2 / b_adapt=1 / b_bias=0 / direct=1 / weightb=0 / open_gop=0 / weightp=2 / keyint=240 / keyint_min=23 / scenecut=40 / intra_refresh=0 / rc_lookahead=40 / rc=2pass / mbtree=1 / bitrate=1443 / ratetol=1.0 / qcomp=0.60 / qpmin=0 / qpmax=51 / qpstep=4 / cplxblur=20.0 / qblur=0.5 / ip_ratio=1.40 / aq=1:1.00
Language                         : English
Color primaries                  : BT.709-5, BT.1361, IEC 61966-2-4, SMPTE RP177
Transfer characteristics         : BT.709-5, BT.1361
Matrix coefficients              : BT.709-5, BT.1361, IEC 61966-2-4 709, SMPTE RP177

Audio
ID                               : 2
Format                           : AAC
Format/Info                      : Advanced Audio Codec
Format version                   : Version 4
Format profile                   : LC
Codec ID                         : A_AAC
Duration                         : 1h 36mn
Channel(s)                       : 6 channels
Channel positions                : Front: L C R, Side: L R, LFE
Sampling rate                    : 48.0 KHz
Compression mode                 : Lossy
Language                         : English

Text
ID                               : 3
Format                           : UTF-8
Codec ID                         : S_TEXT/UTF8
Codec ID/Info                    : UTF-8 Plain Text
Language                         : Dutch

-------------------------------------

Verenigde Staten
Animatie / Avontuur
96 minuten

geregisseerd door Pete Docter en Bob Peterson
met de stemmen van Edward Asner, Jordan Nagai en Christopher Plummer

Carl Fredricksen heeft er zijn hele leven al van gedroomd om de wereld te ontdekken en grootse avonturen te beleven. Maar op 78-jarige leeftijd lijkt het alsof zijn leven aan hem voorbij is gegaan en zijn de grootse avonturen alleen maar dromen geweest. Maar dat gaat vanaf nu veranderen als Carl besluit om zijn dromen uit te laten komen. Samen met de 8-jarige padvinder Russel gaat hij op avontuur.

+++++++++++++++++++++++++++++++++++++

VIDEO INFO 'YOGI BEAR'

Format                           : Matroska
File size                        : 1.37 GiB
Duration                         : 1h 20mn
Overall bit rate                 : 2 448 Kbps
Encoded date                     : UTC 2011-07-27 20:06:24
Writing application              : mkvmerge v4.9.1 ('Ich will') gemaakt op Jul 11 2011 23:53:15
Writing library                  : libebml v1.2.1 + libmatroska v1.1.1

Video
ID                               : 1
Format                           : MPEG-4 Visual
Format profile                   : Advanced Simple@L5
Format settings, BVOP            : Yes
Format settings, QPel            : No
Format settings, GMC             : No warppoints
Format settings, Matrix          : Default (H.263)
Codec ID                         : XVID
Codec ID/Hint                    : XviD
Duration                         : 1h 20mn
Bit rate                         : 1 951 Kbps
Width                            : 720 pixels
Height                           : 400 pixels
Display aspect ratio             : 16:9
Frame rate                       : 23.976 fps
Color space                      : YUV
Chroma subsampling               : 4:2:0
Bit depth                        : 8 bits
Scan type                        : Progressive
Compression mode                 : Lossy
Bits/(Pixel*Frame)               : 0.283
Stream size                      : 1.10 GiB (80%)
Writing library                  : XviD 1.2.1 (UTC 2008-12-04)
Language                         : English

Audio
ID                               : 2
Format                           : AC-3
Format/Info                      : Audio Coding 3
Mode extension                   : CM (complete main)
Codec ID                         : A_AC3
Duration                         : 1h 20mn
Bit rate mode                    : Constant
Bit rate                         : 448 Kbps
Channel(s)                       : 6 channels
Channel positions                : Front: L C R, Side: L R, LFE
Sampling rate                    : 48.0 KHz
Bit depth                        : 16 bits
Compression mode                 : Lossy
Stream size                      : 258 MiB (18%)
Language                         : English

Text
ID                               : 3
Format                           : UTF-8
Codec ID                         : S_TEXT/UTF8
Codec ID/Info                    : UTF-8 Plain Text
Language                         : Dutch

-------------------------------------

Verenigde Staten / Nieuw-Zeeland
Animatie / Avontuur
80 minuten

geregisseerd door Eric Brevig
met de stemmen van Dan Akroyd en Justin Timberlake en Anna Faris

Yogi is een beer die in het Yellystone Park woont. Daar staat hij bekend bekend vanwege zijn talloze pogingen om picknick-mandjes te stelen van kampeerders. Dit tot groot ongenoegen van Park Ranger Smith. Yogi wordt altijd bijgestaan door de jonge beer Boo-Boo. Wanneer Yogi erachter komt dat de gierige Mayor Brown het Yellystone Park voor eens en altijd wil sluiten, moet hij een team vormen met Boo-Boo én oude vijand Ranger Smith om dit tegen te gaan, anders zullen families nooit meer kunnen genieten van de natuur en raken Yogi en Boo-Boo hun ''thuis'' kwijt. Tijdens het avontuur maken ze kennis met Rachel, een natuurdocumentaire-maker, die Yogi en Boo-Boo probeert te filmen voor haar volgende film.

-Ondertiteling (nederlands) beiden in de film met de mogelijkheid deze in/uit te schakelen.
